<svg width="56" height="56" viewBox="0 0 56 56" fill="none" xmlns="http://www.w3.org/2000/svg">
<rect width="56" height="56" rx="7.5" fill="url(#paint0_linear_10_238)"/>
<path d="M36.3022 19.8432C34.6973 19.1066 33.0036 18.5814 31.2635 18.2806C31.2477 18.2776 31.2313 18.2797 31.2167 18.2866C31.2021 18.2934 31.1901 18.3047 31.1823 18.3188C30.9512 18.7376 30.7415 19.1678 30.5538 19.6078C28.6782 19.3229 26.7704 19.3229 24.8948 19.6078C24.7062 19.1667 24.4935 18.7364 24.2576 18.3188C24.2495 18.305 24.2374 18.294 24.2229 18.2871C24.2084 18.2803 24.1921 18.2781 24.1763 18.2806C22.4368 18.5809 20.7436 19.1061 19.1396 19.8432C19.1257 19.849 19.1141 19.859 19.1062 19.8717C15.8974 24.6663 15.0185 29.3429 15.4497 33.9605C15.4509 33.9719 15.4545 33.9829 15.46 33.9928C15.4656 34.0028 15.4731 34.0115 15.4821 34.0185C17.3506 35.4027 19.4408 36.4593 21.6633 37.1432C21.6789 37.1479 21.6957 37.1477 21.7112 37.1426C21.7268 37.1375 21.7404 37.1277 21.7503 37.1147C22.2275 36.465 22.6504 35.7771 23.0146 35.058C23.0195 35.0481 23.0224 35.0373 23.0229 35.0263C23.0233 35.0152 23.0215 35.0042 23.0174 34.994C23.0134 34.9837 23.0072 34.9744 22.9993 34.9667C22.9914 34.959 22.9819 34.953 22.9715 34.9492C22.3046 34.6945 21.6589 34.3873 21.0406 34.0306C21.0293 34.024 21.0199 34.0148 21.0131 34.0037C21.0063 33.9925 21.0024 33.9799 21.0016 33.9669C21.0008 33.9539 21.0033 33.941 21.0087 33.9291C21.0142 33.9173 21.0224 33.907 21.0328 33.8991C21.1624 33.8024 21.2924 33.7009 21.4162 33.5984C21.4272 33.5894 21.4405 33.5836 21.4546 33.5817C21.4687 33.5799 21.483 33.5819 21.496 33.5878C25.547 35.4375 29.933 35.4375 33.9361 33.5878C33.9492 33.5815 33.9638 33.5791 33.9781 33.5808C33.9925 33.5825 34.0061 33.5883 34.0174 33.5974C34.1411 33.6994 34.2712 33.8019 34.4041 33.8991C34.4145 33.9069 34.4229 33.9172 34.4284 33.9289C34.4339 33.9407 34.4365 33.9537 34.4358 33.9667C34.4351 33.9797 34.4313 33.9923 34.4246 34.0035C34.4179 34.0146 34.4085 34.0239 34.3974 34.0306C33.7798 34.3908 33.1328 34.6981 32.4635 34.9492C32.4531 34.9532 32.4436 34.9593 32.4357 34.9671C32.4278 34.975 32.4216 34.9844 32.4176 34.9949C32.4137 35.0053 32.412 35.0164 32.4126 35.0276C32.4133 35.0387 32.4163 35.0496 32.4214 35.0594C32.7917 35.7746 33.2139 36.4617 33.6847 37.1152C33.6943 37.1286 33.7078 37.1387 33.7235 37.144C33.7391 37.1493 33.756 37.1495 33.7718 37.1447C35.9973 36.4627 38.0901 35.406 39.9602 34.02C39.9693 34.0133 39.9769 34.0048 39.9825 33.995C39.9881 33.9851 39.9915 33.9742 39.9926 33.9629C40.5089 28.6235 39.1281 23.9851 36.3327 19.8737C36.3264 19.8603 36.3157 19.8495 36.3022 19.8432ZM23.6189 31.1491C22.3991 31.1491 21.3949 30.0294 21.3949 28.6544C21.3949 27.2795 22.3802 26.1597 23.6189 26.1597C24.8677 26.1597 25.8632 27.2891 25.8429 28.6544C25.8438 30.0294 24.858 31.1491 23.6189 31.1491ZM31.8442 31.1491C30.6244 31.1491 29.6202 30.0294 29.6202 28.6544C29.6202 27.2795 30.6055 26.1597 31.8442 26.1597C33.093 26.1597 34.0884 27.2891 34.0681 28.6544C34.0686 30.0294 33.093 31.1491 31.8442 31.1491Z" fill="#F6F4EE"/>
<defs>
<linearGradient id="paint0_linear_10_238" x1="0" y1="0" x2="56" y2="56" gradientUnits="userSpaceOnUse">
<stop stop-color="#FD6E6A"/>
<stop offset="1" stop-color="#FFC600"/>
</linearGradient>
</defs>
</svg>
