<svg width="56" height="56" viewBox="0 0 56 56" fill="none" xmlns="http://www.w3.org/2000/svg">
<rect width="56" height="56" rx="7.5" fill="url(#paint0_linear_10_242)"/>
<path fill-rule="evenodd" clip-rule="evenodd" d="M21.698 30.0491C21.7419 30.0626 21.7866 30.0731 21.8319 30.0806C22.1189 30.7569 22.4043 31.4339 22.6881 32.1116C23.1984 33.331 23.7128 34.5869 23.8254 34.9481C23.9664 35.3924 24.1145 35.6948 24.2768 35.9017C24.361 36.0072 24.4574 36.1006 24.571 36.1716C24.6307 36.2077 24.6939 36.2377 24.7597 36.2608C25.0844 36.3826 25.3806 36.3319 25.5663 36.27C25.6753 36.2329 25.7789 36.1818 25.8747 36.1178L25.8797 36.1158L28.7467 34.3282L32.059 36.8665C32.1077 36.9037 32.1605 36.9351 32.2173 36.9608C32.615 37.1333 33.0005 37.1942 33.3637 37.1455C33.7248 37.0948 34.0119 36.9436 34.226 36.7721C34.4715 36.5738 34.6675 36.3209 34.7981 36.0336L34.8073 36.0113L34.8103 36.0032L34.8123 35.9991V35.9971L34.8134 35.9961C34.83 35.9521 34.8436 35.907 34.8539 35.8611L37.8771 20.6184C37.8855 20.5694 37.8902 20.5199 37.8913 20.4703C37.8913 20.0239 37.7229 19.5988 37.3283 19.3421C36.9894 19.122 36.6131 19.1119 36.3747 19.1301C36.119 19.1504 35.8816 19.2133 35.7223 19.264C35.6334 19.2928 35.5454 19.3246 35.4586 19.3594L35.4474 19.3645L18.4912 26.0155L18.4892 26.0165C18.4317 26.0373 18.3751 26.0606 18.3197 26.0865C18.1852 26.1468 18.0562 26.2188 17.9342 26.3016C17.7039 26.4588 17.1734 26.891 17.2637 27.6052C17.3347 28.1733 17.7242 28.5233 17.9626 28.6917C18.0925 28.784 18.2163 28.85 18.3076 28.8936C18.3481 28.9139 18.4354 28.9484 18.4729 28.9646L18.4831 28.9677L21.698 30.0491ZM36.0409 20.7645H36.0389L36.0125 20.7756L19.036 27.4358L19.0096 27.4459L18.9994 27.449C18.9684 27.461 18.9379 27.4745 18.9081 27.4895C18.9365 27.5055 18.9656 27.52 18.9954 27.5332L22.1829 28.6065C22.2392 28.6273 22.2935 28.6531 22.3452 28.6836L32.8726 22.5206L32.8828 22.5155C32.9239 22.491 32.9658 22.468 33.0086 22.4465C33.0816 22.409 33.1983 22.3542 33.3302 22.3136C33.4215 22.2852 33.6923 22.205 33.9845 22.2994C34.1397 22.3478 34.2781 22.4391 34.3836 22.5628C34.4892 22.6865 34.5576 22.8375 34.581 22.9984C34.6188 23.1391 34.6199 23.2872 34.5841 23.4285C34.5131 23.7075 34.3183 23.9246 34.1408 24.091C33.9886 24.233 32.0144 26.1362 30.0676 28.015L27.4167 30.5716L26.945 31.0281L32.9021 35.5953C32.9825 35.6289 33.0698 35.6428 33.1567 35.6359C33.2005 35.6299 33.2416 35.6116 33.2754 35.5832C33.3165 35.5484 33.3517 35.5073 33.3799 35.4614L33.3819 35.4604L36.3138 20.6762C36.2216 20.6989 36.1311 20.7281 36.0429 20.7635L36.0409 20.7645ZM27.4573 33.3381L26.2683 32.4271L25.9802 34.2582L27.4573 33.3381ZM25.1777 30.6193L26.3596 29.4779L29.0105 26.9194L29.9976 25.9678L23.3831 29.8401L23.4186 29.9233C23.8357 30.9088 24.2483 31.8963 24.6563 32.8856L24.9434 31.0595C24.9696 30.8903 25.0521 30.7358 25.1777 30.6193Z" fill="white"/>
<defs>
<linearGradient id="paint0_linear_10_242" x1="0" y1="0" x2="56" y2="56" gradientUnits="userSpaceOnUse">
<stop stop-color="#FD6E6A"/>
<stop offset="1" stop-color="#FFC600"/>
</linearGradient>
</defs>
</svg>
